<svg width="51" height="126" viewBox="0 0 51 126" fill="none" xmlns="http://www.w3.org/2000/svg">
<path d="M39.3396 119.168C39.0572 119.168 38.748 119.185 38.4253 119.238C38.3447 119.256 38.264 119.273 38.1833 119.291C38.1027 119.308 38.022 119.326 37.9279 119.343C37.7666 119.378 37.5918 119.431 37.417 119.501C36.7044 119.746 35.9381 120.149 35.1583 120.622C34.4054 121.06 33.6391 121.55 32.9534 122.006C32.2678 122.461 31.6628 122.899 31.2325 123.197C30.8023 123.495 30.5469 123.687 30.5469 123.687C30.5469 123.687 30.6141 123.722 30.7485 123.792C30.883 123.845 31.0712 123.95 31.2998 124.038C31.7838 124.213 32.456 124.441 33.2223 124.651C33.4105 124.703 33.6122 124.756 33.8139 124.791C34.0156 124.826 34.2307 124.861 34.4323 124.896C34.8491 124.949 35.2793 125.001 35.7096 125.019C36.5566 125.071 37.4304 124.931 38.1699 124.668C39.6488 124.143 40.6571 122.952 41.2756 121.971C41.9075 120.972 42.1629 120.149 42.1629 120.149C42.1629 120.149 41.652 119.729 40.8185 119.466C40.4151 119.308 39.9177 119.168 39.3396 119.168Z" fill="#DBDBDB"/>
<path d="M41.6097 111.513C41.2601 110.795 40.803 110.164 40.3325 109.551C40.1039 109.253 39.8485 108.973 39.6065 108.71C39.4855 108.57 39.3645 108.448 39.2435 108.343C39.1225 108.22 39.0149 108.097 38.8939 107.975C38.4368 107.519 38.02 107.151 37.7242 106.906C37.4285 106.643 37.2402 106.486 37.2402 106.486C37.2402 106.486 37.2402 106.836 37.2537 107.397C37.2671 107.975 37.3075 108.746 37.4016 109.639C37.4957 110.515 37.6436 111.513 37.8587 112.477C38.0872 113.405 38.383 114.316 38.746 115.069C38.8267 115.262 38.9342 115.437 39.0283 115.612C39.0687 115.7 39.1225 115.77 39.1762 115.857C39.23 115.927 39.2703 115.997 39.3241 116.068C39.5392 116.348 39.7544 116.576 39.9829 116.786C40.198 116.996 40.4266 117.154 40.6417 117.294C40.8568 117.434 41.0719 117.556 41.2736 117.627C42.0802 117.924 42.6584 117.872 42.6584 117.872C42.6584 117.872 42.7525 116.978 42.6584 115.752C42.6046 115.139 42.5239 114.438 42.3491 113.72C42.3088 113.545 42.255 113.352 42.2012 113.177C42.1475 112.985 42.0937 112.809 42.0399 112.617C41.9189 112.231 41.7845 111.864 41.6097 111.513Z" fill="#DBDBDB"/>
<path d="M29.858 114.086C29.8042 114.016 29.737 113.946 29.6429 113.841C29.4547 113.631 29.1724 113.333 28.7959 113.07C28.6077 112.93 28.406 112.79 28.164 112.667C27.9355 112.545 27.6666 112.44 27.4111 112.317C26.8734 112.107 26.228 111.984 25.4886 112.002C25.1121 112.019 24.7357 112.037 24.3323 112.089C23.929 112.142 23.5122 112.212 23.0955 112.299C22.6787 112.387 22.2485 112.492 21.8451 112.597C21.4418 112.702 21.0385 112.807 20.662 112.913C19.9091 113.123 19.2369 113.315 18.7663 113.473C18.2823 113.631 18 113.718 18 113.718C18 113.718 18.242 113.946 18.6722 114.279C18.8739 114.454 19.1293 114.647 19.4251 114.857C19.5596 114.962 19.7209 115.085 19.8822 115.19C20.0436 115.295 20.2183 115.4 20.3931 115.523C20.7427 115.733 21.1191 115.96 21.509 116.153C21.7107 116.258 21.8989 116.346 22.1006 116.451C22.1947 116.503 22.3022 116.556 22.3963 116.591C22.5039 116.626 22.598 116.661 22.7056 116.714C23.5391 117.011 24.3727 117.204 25.139 117.204C26.6986 117.152 27.8951 116.381 28.7152 115.645C29.1186 115.277 29.4412 114.909 29.6429 114.629C29.858 114.349 29.9656 114.174 29.9656 114.174C29.9656 114.174 29.8984 114.139 29.858 114.086Z" fill="#DBDBDB"/>
<path d="M28.0191 107.712C28.2073 108.535 28.5166 109.218 28.8527 109.779C29.014 110.059 29.2022 110.287 29.377 110.48C29.5652 110.672 29.74 110.847 29.9148 110.988C30.2643 111.268 30.587 111.46 30.8156 111.566C30.9231 111.618 31.0307 111.653 31.0979 111.671C31.1651 111.688 31.2055 111.706 31.2055 111.706C31.2055 111.706 31.2727 111.496 31.3668 111.145C31.4609 110.795 31.5685 110.287 31.6491 109.656C31.8239 108.43 31.9046 106.801 31.5416 105.225C31.3668 104.419 31.071 103.63 30.7349 102.912C30.4122 102.177 30.0358 101.476 29.6862 100.898C29.5115 100.618 29.3501 100.32 29.2022 100.092C29.0543 99.8468 28.9199 99.6366 28.7989 99.4615C28.5703 99.1111 28.409 98.9185 28.409 98.9185C28.409 98.9185 28.3283 99.2513 28.2342 99.7943C28.1267 100.337 28.0057 101.126 27.9116 102.001C27.8578 102.457 27.8175 102.93 27.7906 103.42C27.7637 103.893 27.7637 104.384 27.7637 104.892C27.7637 105.382 27.7906 105.873 27.8309 106.363C27.8443 106.836 27.9116 107.309 28.0191 107.712Z" fill="#DBDBDB"/>
<path d="M19.481 102.544C19.3465 102.281 19.1448 101.896 18.8356 101.511C18.5398 101.108 18.1499 100.705 17.6659 100.319C17.1954 99.9341 16.6173 99.5837 15.8913 99.3385C15.6493 99.2509 15.3938 99.1808 15.1384 99.1283C14.8829 99.0582 14.6141 99.0057 14.3452 98.9531C13.0007 98.6904 11.468 98.5853 10.3118 98.4977C9.14215 98.4101 8.30859 98.3926 8.30859 98.3926C8.30859 98.3926 8.59093 98.8655 9.07493 99.5487C9.54549 100.249 10.2715 101.108 11.0782 101.931C11.1992 102.054 11.3336 102.176 11.4546 102.299C11.5218 102.369 11.589 102.421 11.6563 102.492C11.7235 102.544 11.7907 102.597 11.8579 102.667C12.1268 102.894 12.4092 103.105 12.6915 103.315C12.9738 103.507 13.2562 103.7 13.5385 103.84C13.8208 103.998 14.1032 104.138 14.3855 104.226C15.8913 104.716 17.2088 104.418 18.1499 103.98C19.1045 103.543 19.6826 103 19.6826 103C19.6826 103 19.6154 102.824 19.481 102.544Z" fill="#DBDBDB"/>
<path d="M19.9774 100.267C20.2463 100.67 20.5152 100.968 20.7169 101.143C20.9186 101.318 21.053 101.406 21.053 101.406C21.053 101.406 21.5101 100.705 21.9403 99.6014C22.384 98.4804 22.8277 96.9389 22.8142 95.2923C22.8142 94.6792 22.7739 94.0486 22.6798 93.453C22.6395 93.1553 22.5722 92.8575 22.505 92.5597C22.4378 92.2794 22.384 91.9641 22.3168 91.6838C22.1958 91.1934 22.0748 90.7204 21.9403 90.3C21.9 90.1949 21.8731 90.0898 21.8462 89.9847C21.8059 89.8796 21.7925 89.792 21.7521 89.6869C21.6983 89.4942 21.6446 89.3191 21.5908 89.1614C21.3757 88.5133 21.2143 88.1279 21.2143 88.1279C21.2143 88.1279 20.7976 88.9337 20.3136 90.1774C20.1926 90.4927 20.0716 90.8255 19.9371 91.1759C19.8699 91.351 19.8161 91.5437 19.7489 91.7189C19.6817 91.894 19.6413 92.0867 19.5741 92.2794C19.359 93.0326 19.1708 93.8559 19.0363 94.6617C18.9826 94.977 18.9422 95.2748 18.9153 95.5726C18.8884 95.8704 18.875 96.1681 18.875 96.4484C18.875 97.3243 19.0094 98.0775 19.2111 98.7256C19.4262 99.3562 19.7086 99.8642 19.9774 100.267Z" fill="#DBDBDB"/>
<path d="M9.42399 89.407C9.71976 89.4245 9.98865 89.4245 10.2441 89.3895C11.2524 89.3019 11.9247 88.9866 11.9247 88.9866C11.9247 88.9866 11.9112 88.8115 11.8305 88.4962C11.7902 88.3385 11.7364 88.1633 11.6692 87.9531C11.6154 87.7429 11.5348 87.5152 11.4407 87.27C11.239 86.7795 10.9701 86.254 10.5802 85.711C10.4861 85.5884 10.392 85.4657 10.2844 85.3081C10.1769 85.168 10.0693 85.0453 9.94832 84.9052C9.70632 84.6425 9.42399 84.3797 9.11476 84.1345C8.7921 83.9067 8.44254 83.679 8.06609 83.4513C7.71654 83.2236 7.32665 83.0134 6.9502 82.8032C6.18387 82.3828 5.36375 82.0149 4.62431 81.6821C3.89831 81.3493 3.26642 81.069 2.79586 80.8763C2.3253 80.6836 2.04297 80.561 2.04297 80.561C2.04297 80.561 2.15052 80.9114 2.35219 81.4894C2.45975 81.7697 2.58075 82.12 2.72864 82.4879C2.88997 82.8557 3.06475 83.2586 3.26642 83.679C3.46808 84.0994 3.69664 84.5373 3.9252 84.9753C3.97897 85.0804 4.0462 85.1855 4.11342 85.2906C4.18064 85.3957 4.23442 85.5008 4.31509 85.6059C4.44953 85.8161 4.58397 86.0263 4.73186 86.219C5.0142 86.6219 5.30998 87.0072 5.6192 87.3576C5.76709 87.5327 5.92842 87.7079 6.08976 87.848C6.25109 87.9882 6.41242 88.1283 6.5872 88.2684C7.24598 88.7764 7.9182 89.0567 8.53665 89.2143C8.84587 89.337 9.14165 89.3895 9.42399 89.407Z" fill="#DBDBDB"/>
<path d="M12.437 84.7295C12.5043 85.4127 12.6522 85.9907 12.8135 86.4812C12.8942 86.7264 12.9883 86.9366 13.0689 87.1118C13.1496 87.3045 13.2572 87.4446 13.3244 87.5673C13.4723 87.8125 13.5933 87.9351 13.5933 87.9351C13.5933 87.9351 14.1848 87.4271 14.8436 86.5162C15.0049 86.2885 15.1797 86.0433 15.3411 85.763C15.5158 85.4827 15.6906 85.185 15.8519 84.8521C16.1746 84.204 16.4569 83.4858 16.6452 82.6976C16.6989 82.5049 16.7258 82.2947 16.7662 82.0845C16.8065 81.8743 16.8334 81.6641 16.8603 81.4539C16.9141 81.0335 16.9409 80.6131 16.9544 80.1927C16.9678 79.3519 16.9813 78.5286 16.9275 77.7929C16.9006 77.425 16.8737 77.0922 16.8468 76.7769C16.8334 76.4616 16.8065 76.1988 16.7796 75.9711C16.7393 75.5157 16.6989 75.2529 16.6989 75.2529C16.6989 75.2529 16.4973 75.4806 16.1746 75.8835C15.8519 76.2864 15.4083 76.847 14.9377 77.5301C14.4806 78.2133 14.01 79.0015 13.5933 79.8423C13.3782 80.2627 13.1899 80.7007 13.0152 81.1386C12.8538 81.559 12.7194 81.9969 12.6253 82.4173C12.5312 82.8377 12.4774 83.2406 12.437 83.626C12.4236 83.8187 12.4102 84.0113 12.4102 84.1865C12.4102 84.2741 12.4102 84.3617 12.4102 84.4493C12.4236 84.5544 12.4236 84.6419 12.437 84.7295Z" fill="#DBDBDB"/>
<path d="M3.54934 72.0304C3.83168 72.2931 4.12745 72.5033 4.40979 72.696C4.9879 73.0639 5.53912 73.2741 6.03657 73.4142C7.01802 73.6769 7.73057 73.6069 7.73057 73.6069C7.73057 73.6069 7.81124 72.8537 7.62302 71.7851C7.58268 71.5224 7.50202 71.2421 7.43479 70.9268C7.36757 70.629 7.27346 70.3137 7.13902 69.9809C7.01802 69.6656 6.87013 69.3153 6.6819 68.9824C6.58779 68.8073 6.49368 68.6496 6.38613 68.4745C6.33235 68.3869 6.27857 68.2993 6.21135 68.2117C6.15757 68.1241 6.10379 68.0365 6.03657 67.9489C5.06857 66.5826 3.50901 65.1988 2.27212 64.0602C1.64023 63.4997 1.07556 63.0092 0.672224 62.6589C0.255445 62.3436 0 62.1509 0 62.1509C0 62.1509 0.0403334 62.5362 0.121 63.1493C0.201667 63.7624 0.322667 64.6208 0.524334 65.5667C0.739446 66.5126 1.03522 67.5461 1.38478 68.527C1.46545 68.7722 1.573 69.0175 1.68056 69.2452C1.78812 69.4729 1.89567 69.7006 2.00323 69.9283C2.23178 70.3663 2.47378 70.7692 2.72923 71.1195C2.99812 71.4698 3.25356 71.7851 3.54934 72.0304Z" fill="#DBDBDB"/>
<path d="M9.55871 73.1512C9.55871 73.1512 10.2444 72.8534 11.0779 72.2053C11.5082 71.8725 11.9653 71.4521 12.4089 70.9441C12.624 70.6813 12.8392 70.4186 13.0408 70.1033C13.2559 69.8055 13.4576 69.4727 13.6324 69.1223C13.8072 68.772 13.9685 68.3866 14.1029 68.0012C14.2374 67.6159 14.3315 67.213 14.4525 66.8101C14.6811 66.0043 14.8289 65.1986 14.9365 64.4804C15.0709 63.7622 15.1516 63.1316 15.2054 62.6761C15.2457 62.2207 15.2592 61.9404 15.2592 61.9404C15.2592 61.9404 15.0172 62.0981 14.6273 62.3608C14.2374 62.6411 13.6996 63.044 13.0946 63.5345C12.503 64.0424 11.8443 64.6555 11.2796 65.3212C10.7015 65.9868 10.1772 66.7225 9.80071 67.4757C9.59904 67.8436 9.47804 68.2115 9.37049 68.5793C9.26293 68.9472 9.19571 69.2975 9.14193 69.6303C9.08815 69.9631 9.07471 70.2959 9.06126 70.5937C9.04782 70.8915 9.08815 71.1893 9.11504 71.4345C9.26293 72.5031 9.55871 73.1512 9.55871 73.1512Z" fill="#DBDBDB"/>
<path d="M1.98921 49.0481C2.02954 49.451 2.09676 49.8539 2.16398 50.2568C2.31187 51.045 2.47321 51.7983 2.75554 52.4464C3.11854 53.3222 3.54877 54.0054 4.01932 54.5484C4.48988 55.0914 4.96044 55.4943 5.41755 55.7921C6.31833 56.3877 7.01744 56.5628 7.01744 56.5628C7.01744 56.5628 7.07122 56.3877 7.13844 56.0724C7.19222 55.7571 7.28633 55.3191 7.32666 54.7761C7.367 54.2331 7.35355 53.6025 7.246 52.8843C7.15188 52.1836 6.97711 51.3954 6.64099 50.5721C6.53344 50.2918 6.39899 50.0115 6.26455 49.7313C6.19733 49.5911 6.1301 49.451 6.04944 49.2934C5.98221 49.1532 5.90155 48.9956 5.83433 48.8554C5.45788 48.1372 5.0411 47.4015 4.61088 46.7184C4.1941 46.0177 3.76388 45.3521 3.40088 44.7915C2.67487 43.6529 2.12365 42.8472 2.12365 42.8472C2.12365 42.8472 2.04298 43.4252 1.94887 44.3361C1.8951 44.7915 1.88165 45.3346 1.86821 45.9301C1.85476 46.5257 1.85476 47.1563 1.88165 47.8219C1.90854 48.2248 1.94887 48.6452 1.98921 49.0481Z" fill="#DBDBDB"/>
<path d="M13.6736 54.3383C13.7677 54.2332 13.8483 54.1281 13.929 54.023C14.0097 53.9179 14.1038 53.7953 14.1844 53.6902C14.3592 53.4625 14.5206 53.2173 14.6684 52.972C14.8163 52.7268 14.9508 52.464 15.0852 52.2188C15.2197 51.9385 15.3541 51.6933 15.4751 51.4481C15.6902 51.0101 15.8784 50.5722 16.0398 50.1693C16.1204 49.9591 16.2011 49.7665 16.2683 49.5913C16.3356 49.3986 16.4028 49.2409 16.47 49.0833C16.712 48.4527 16.833 48.0498 16.833 48.0498C16.833 48.0498 16.0801 48.2075 15.018 48.5753C14.7626 48.6629 14.4668 48.768 14.1844 48.8906C13.9021 49.0132 13.6063 49.1534 13.2971 49.311C12.6921 49.6088 12.0871 49.9767 11.5224 50.3971C11.0788 50.7124 10.7023 51.0802 10.3662 51.4481C9.85532 52.0261 9.47888 52.6567 9.23688 53.2873C9.00832 53.9004 8.88732 54.5135 8.83354 55.0215C8.77977 55.547 8.76632 55.9849 8.80665 56.3002C8.83354 56.6155 8.87388 56.7907 8.87388 56.7907C8.87388 56.7907 9.58643 56.7381 10.5275 56.4053C11.4821 56.055 12.7056 55.4419 13.6736 54.3383Z" fill="#DBDBDB"/>
<path d="M7.70247 36.9965C8.03858 37.6797 8.41503 38.2577 8.77803 38.6957C9.50403 39.5715 10.1359 39.9919 10.1359 39.9919C10.1359 39.9919 10.23 39.8342 10.3645 39.5715C10.4989 39.2912 10.6603 38.8883 10.8216 38.3803C10.9829 37.8724 11.1174 37.2593 11.1846 36.5411C11.2115 36.1907 11.2115 35.8054 11.2115 35.4025C11.2115 34.9996 11.1846 34.5792 11.1174 34.1238C11.0501 33.6683 10.956 33.1954 10.8485 32.7049C10.7947 32.4597 10.7275 32.2144 10.6603 31.9517C10.593 31.7064 10.5393 31.4612 10.472 31.1985C10.2031 30.2 9.89392 29.2015 9.59814 28.2907C9.45025 27.8352 9.30236 27.4148 9.18136 27.0295C9.06036 26.6441 8.93936 26.3113 8.84525 26.031C8.65703 25.4529 8.53603 25.1201 8.53603 25.1201C8.53603 25.1201 8.38814 25.4529 8.18647 26.031C8.06547 26.3113 7.95792 26.6616 7.85036 27.0645C7.72936 27.4674 7.60836 27.9053 7.48736 28.3607C7.43358 28.5884 7.36636 28.8337 7.31258 29.0789C7.2588 29.3242 7.20503 29.5694 7.16469 29.8497C7.08402 30.3752 7.00336 30.9007 6.94958 31.4437C6.8958 31.9867 6.85547 32.5122 6.85547 33.0202C6.85547 33.5457 6.8958 34.0537 6.96302 34.5266C7.11091 35.4901 7.36636 36.2958 7.70247 36.9965Z" fill="#DBDBDB"/>
<path d="M17.881 39.5541C18.1633 39.3264 18.4457 39.0636 18.7146 38.8009C18.97 38.5381 19.212 38.2578 19.454 37.9776C19.6826 37.6973 19.9246 37.4345 20.1262 37.1718C20.3279 36.909 20.5161 36.6463 20.6775 36.4186C20.7581 36.296 20.8388 36.1909 20.906 36.0858C20.9732 35.9807 21.0405 35.8931 21.1077 35.8055C21.3497 35.4552 21.4841 35.2449 21.4841 35.2449C21.4841 35.2449 21.2152 35.2099 20.7581 35.1574C20.301 35.1223 19.6691 35.0698 18.9566 35.1048C18.2574 35.1398 17.4508 35.2274 16.671 35.3851C16.4693 35.4376 16.2811 35.4727 16.0794 35.5252C15.8912 35.5778 15.703 35.6478 15.5282 35.7179C15.1652 35.858 14.8157 36.0157 14.5064 36.2084C14.1972 36.4011 13.9149 36.6113 13.6594 36.839C13.404 37.0667 13.2023 37.3295 13.0141 37.5747C12.6511 38.0827 12.3957 38.6257 12.2209 39.0986C12.0461 39.5716 11.9789 40.0095 11.9385 40.3073C11.8982 40.6226 11.8848 40.7978 11.8848 40.7978C11.8848 40.7978 12.5839 41.008 13.5653 41.008C14.0628 41.008 14.6274 40.9729 15.219 40.8328C15.824 40.7102 16.4424 40.4825 17.0474 40.1321C17.3163 40.0095 17.5987 39.7993 17.881 39.5541Z" fill="#DBDBDB"/>
<path d="M14.7618 22.0722C14.9365 22.843 15.1785 23.5086 15.434 24.0691C15.9314 25.1552 16.4558 25.7683 16.4558 25.7683C16.4558 25.7683 16.9667 25.3303 17.4775 24.4545C17.612 24.2268 17.733 23.9815 17.854 23.7013C17.975 23.4385 18.1094 23.1232 18.217 22.8079C18.4321 22.1423 18.5934 21.354 18.6607 20.4256C18.7413 19.5148 18.7279 18.4813 18.6607 17.4127C18.5934 16.3442 18.5262 15.2932 18.4321 14.3123C18.338 13.3488 18.2439 12.4905 18.1767 11.8774C18.096 11.2643 18.0557 10.8965 18.0557 10.8965C18.0557 10.8965 18.0019 10.9666 17.9078 11.0892C17.8271 11.2293 17.6927 11.422 17.5313 11.6672C17.2221 12.1577 16.7919 12.8584 16.3617 13.6641C15.9449 14.5049 15.5281 15.4684 15.192 16.4493C14.8693 17.4478 14.6408 18.4813 14.5601 19.4447C14.5466 19.6899 14.5332 19.9176 14.5332 20.1454C14.5332 20.3731 14.5466 20.6008 14.5601 20.8285C14.6139 21.2664 14.6811 21.6868 14.7618 22.0722Z" fill="#DBDBDB"/>
<path d="M24.0257 27.958C24.187 27.8879 24.3349 27.8179 24.4962 27.7303C24.5769 27.6952 24.6441 27.6602 24.7248 27.6077C24.8054 27.5726 24.8861 27.5201 24.9668 27.485C25.5987 27.1522 26.1633 26.7493 26.6608 26.3815C27.1717 26.0311 27.6019 25.6808 27.8977 25.4181C28.0456 25.2779 28.1666 25.1728 28.2472 25.1028C28.3279 25.0327 28.3817 24.9977 28.3817 24.9977C28.3817 24.9977 28.3145 24.9626 28.1935 24.9101C28.0725 24.8575 27.8977 24.7699 27.696 24.6824C27.2792 24.5072 26.6742 24.2619 25.9751 24.0517C25.6256 23.9466 25.2626 23.8415 24.8727 23.754C24.6844 23.7189 24.4828 23.6664 24.2946 23.6313C24.1063 23.5963 23.9047 23.5788 23.7164 23.5613C22.9367 23.4737 22.1434 23.4737 21.4443 23.6313C20.7587 23.789 20.194 24.1043 19.7234 24.4546C19.4814 24.6298 19.2798 24.8225 19.0915 25.0327C18.9168 25.2429 18.7689 25.4531 18.6344 25.6633C18.1101 26.4866 17.9219 27.1873 17.9219 27.1873C17.9219 27.1873 18.5538 27.6252 19.5083 27.9755C19.9789 28.1507 20.5435 28.3083 21.1485 28.3784C21.7535 28.4485 22.372 28.4309 23.0442 28.3083C23.3803 28.2032 23.7164 28.0981 24.0257 27.958Z" fill="#DBDBDB"/>
<path d="M25.8546 13.1736C25.9756 13.524 26.0697 13.7166 26.0697 13.7166C26.0697 13.7166 26.11 13.6991 26.1772 13.6641C26.2444 13.6291 26.3386 13.5765 26.4461 13.5064C26.6747 13.3663 26.9973 13.1386 27.3334 12.8058C28.0057 12.1226 28.8392 11.1066 29.3636 9.35496C29.5383 8.7769 29.7131 8.1463 29.8476 7.48066C30.0223 6.63985 30.1702 5.74649 30.2912 4.88817C30.4257 4.04736 30.5467 3.22407 30.6273 2.48836C30.8156 1.05199 30.9231 0.000976562 30.9231 0.000976562C30.9231 0.000976562 30.5198 0.316279 29.9282 0.859301C29.6325 1.12205 29.2963 1.45487 28.9199 1.82273C28.5569 2.2081 28.1939 2.64602 27.8174 3.11897C27.5889 3.39924 27.3738 3.69702 27.1587 4.01233C27.1049 4.08239 27.0511 4.16998 26.9973 4.24005C26.9436 4.31011 26.9032 4.3977 26.8494 4.48528C26.7553 4.64293 26.6612 4.8181 26.5537 4.97575C26.1772 5.64139 25.868 6.32455 25.6529 7.0077C25.505 7.44562 25.4109 7.91858 25.3571 8.33898C25.3033 8.75939 25.263 9.17979 25.263 9.58267C25.2496 10.3884 25.3437 11.1066 25.4647 11.7197C25.5857 12.3328 25.7336 12.8233 25.8546 13.1736Z" fill="#DBDBDB"/>
<path d="M34.7682 18.166C35.1716 18.0609 35.548 17.9383 35.8976 17.8157C36.2471 17.7106 36.5698 17.6055 36.8387 17.5004C37.363 17.2902 37.6991 17.1326 37.6991 17.1326C37.6991 17.1326 37.0941 16.537 36.1665 15.8188C35.7093 15.4509 35.1581 15.0656 34.5666 14.6977C33.9885 14.3474 33.37 14.0321 32.7381 13.7868C32.2676 13.5942 31.797 13.454 31.3399 13.384C29.9686 13.2263 28.8796 13.7343 28.1939 14.3649C27.8443 14.6627 27.5889 14.978 27.4275 15.1882C27.3469 15.2933 27.2797 15.3984 27.2393 15.4685C27.199 15.5385 27.1855 15.5736 27.1855 15.5736C27.1855 15.5736 27.3065 15.7312 27.5351 15.9764C27.7637 16.2217 28.0998 16.537 28.53 16.8698C28.9468 17.2026 29.4577 17.553 30.0089 17.8332C30.2912 17.9734 30.587 18.096 30.8962 18.1836C31.2054 18.2887 31.5147 18.3587 31.8508 18.4113C32.8188 18.5689 33.8271 18.3763 34.7682 18.166Z" fill="#DBDBDB"/>
<path d="M49.1676 120.517C48.8987 120.482 48.576 120.429 48.1996 120.359C48.0113 120.324 47.8097 120.307 47.608 120.254C47.4063 120.202 47.1778 120.149 46.9627 120.096C46.5056 119.991 46.0216 119.886 45.4972 119.764C44.9863 119.606 44.4351 119.448 43.8704 119.291C43.5881 119.203 43.2923 119.133 43.01 119.028C42.7277 118.923 42.4319 118.818 42.1361 118.713C41.558 118.502 40.953 118.31 40.3749 118.047C38.0221 117.136 35.7634 115.857 34.1097 114.841C33.7064 114.579 33.3165 114.333 32.9939 114.123C32.8191 114.018 32.6712 113.913 32.5233 113.825C32.3754 113.738 32.2544 113.633 32.1334 113.545C31.6628 113.212 31.4074 113.02 31.4074 113.02C31.4074 113.02 31.1385 112.827 30.668 112.494C30.2108 112.144 29.5655 111.601 28.7857 110.988C27.2665 109.674 25.2633 107.852 23.4483 105.768C21.6198 103.701 19.9393 101.424 18.7562 99.6543C18.5948 99.4441 18.4738 99.2164 18.3394 99.0062C18.2049 98.796 18.0839 98.6033 17.9764 98.4106C17.7478 98.0428 17.5462 97.7275 17.3714 97.4472C17.1966 97.1844 17.089 96.9567 17.0084 96.8166C16.9277 96.6589 16.8739 96.5889 16.8739 96.5889C16.8739 96.5889 16.6992 96.2736 16.3899 95.7306C16.242 95.4503 16.0404 95.135 15.8387 94.7321C15.637 94.3292 15.4085 93.8913 15.153 93.4008C15.032 93.1556 14.8976 92.9103 14.7631 92.6476C14.6287 92.3848 14.5077 92.1046 14.3733 91.8068C14.1044 91.2287 13.8355 90.6156 13.5397 90.0025C13.2843 89.3544 13.0019 88.6888 12.733 88.0231C12.6658 87.848 12.5986 87.6903 12.5179 87.5152C12.4507 87.34 12.3969 87.1648 12.3297 86.9897C12.2087 86.6393 12.0743 86.289 11.9533 85.9387C10.9584 83.1184 10.1248 80.1931 9.65425 77.951C9.58702 77.6707 9.53325 77.408 9.46602 77.1452C9.41225 76.9 9.34502 76.6547 9.31813 76.427C9.23747 75.9716 9.1568 75.5687 9.10302 75.2359C8.98202 74.5702 8.9148 74.2024 8.9148 74.2024C8.9148 74.2024 8.90136 74.1148 8.86102 73.9396C8.83413 73.7645 8.7938 73.5017 8.75347 73.1689C8.69969 72.8361 8.64591 72.4332 8.59213 71.9777C8.52491 71.5223 8.4308 70.9968 8.39047 70.4187C8.33669 69.8407 8.26947 69.2276 8.20224 68.562C8.1888 68.4043 8.16191 68.2291 8.14847 68.0715C8.13502 67.8963 8.12158 67.7387 8.10813 67.546C8.09469 67.1957 8.0678 66.8453 8.04091 66.4775C7.91991 65.0411 7.91991 63.4821 7.89302 61.9406C7.93335 60.3991 7.93335 58.8576 8.04091 57.4038C8.05435 57.0534 8.08124 56.6856 8.10813 56.3352C8.12158 56.1601 8.12158 55.9849 8.14847 55.8272C8.16191 55.6521 8.1888 55.4944 8.20224 55.3192C8.26947 54.6711 8.33669 54.0405 8.39047 53.4625C8.44424 52.8844 8.52491 52.3764 8.59213 51.9035C8.65936 51.448 8.71313 51.0451 8.75347 50.7123C8.80724 50.3795 8.83413 50.1168 8.86102 49.9416C8.90136 49.7664 8.9148 49.6613 8.9148 49.6613C8.9148 49.6613 8.98202 49.2935 9.10302 48.6278C9.1568 48.295 9.23747 47.8921 9.31813 47.4367C9.35847 47.209 9.41225 46.9637 9.46602 46.7185C9.5198 46.4557 9.58702 46.193 9.65425 45.9127C10.1248 43.6706 10.9584 40.7628 11.9533 37.9251C12.0877 37.5747 12.2087 37.2244 12.3297 36.874C12.3969 36.6989 12.4507 36.5237 12.5179 36.3485C12.5851 36.1734 12.6524 36.0157 12.733 35.8405C13.0154 35.1574 13.2843 34.4918 13.5397 33.8612C13.822 33.2305 14.1044 32.6175 14.3733 32.0569C14.5077 31.7766 14.6287 31.4789 14.7631 31.2161C14.8976 30.9534 15.032 30.7081 15.153 30.4629C15.395 29.9724 15.637 29.5345 15.8387 29.1316C16.0404 28.7287 16.242 28.4134 16.3899 28.1332C16.6992 27.5726 16.8739 27.2748 16.8739 27.2748C16.8739 27.2748 16.9277 27.1872 17.0084 27.0471C17.089 26.907 17.21 26.6793 17.3714 26.4165C17.5327 26.1538 17.7478 25.8209 17.9764 25.4531C18.0974 25.2604 18.2184 25.0677 18.3394 24.8575C18.4738 24.6473 18.6083 24.4371 18.7562 24.2094C19.9393 22.4402 21.6198 20.163 23.4483 18.096C25.2767 16.0115 27.2665 14.1898 28.7857 12.876C29.5655 12.2629 30.2108 11.7199 30.668 11.3696C31.1385 11.0367 31.4074 10.8441 31.4074 10.8441C31.4074 10.8441 31.6763 10.6514 32.1334 10.3186C32.2544 10.231 32.3754 10.1434 32.5233 10.0383C32.6712 9.9507 32.8191 9.8456 32.9939 9.7405C33.1014 9.67043 33.2224 9.60036 33.3434 9.51278C33.3569 9.51278 33.3569 9.51278 33.3703 9.51278C33.6661 9.54781 34.0829 9.56533 34.5803 9.5303C35.5752 9.47775 36.8659 9.19748 37.9952 8.3917C38.5868 8.00633 39.138 7.46331 39.622 6.88526C39.8505 6.58747 40.106 6.3072 40.3345 6.00942C40.5631 5.72915 40.7648 5.43136 40.953 5.15109C41.316 4.59055 41.6521 4.10008 41.8672 3.73223C42.0823 3.36438 42.2033 3.13666 42.2033 3.13666C42.2033 3.13666 41.9344 3.11914 41.4773 3.11914C41.0202 3.11914 40.3883 3.13666 39.6758 3.20672C39.501 3.22424 39.3128 3.24176 39.1245 3.27679C38.9363 3.31183 38.7481 3.34686 38.5599 3.38189C38.1834 3.45196 37.7935 3.55706 37.4171 3.66216C36.6508 3.9074 35.8844 4.20518 35.2929 4.6431C34.6879 5.06351 34.2173 5.58901 33.8677 6.11452C33.5316 6.65754 33.3165 7.20056 33.1552 7.70855C33.0073 8.19902 32.9401 8.63694 32.9132 8.93472C32.8997 8.98727 32.8997 9.05734 32.8997 9.10989C32.8594 9.14493 32.8056 9.16244 32.7653 9.19748C32.604 9.30258 32.4426 9.40768 32.2947 9.49526C32.1469 9.60036 32.0259 9.68795 31.9049 9.77553C31.4343 10.1083 31.1654 10.3186 31.1654 10.3186C31.1654 10.3186 30.8965 10.5112 30.426 10.8441C29.9688 11.1944 29.3101 11.7374 28.5168 12.368C26.9842 13.6818 24.9675 15.5386 23.1256 17.6406C21.2837 19.7426 19.5897 22.0198 18.3797 23.824C18.2184 24.0342 18.0974 24.2619 17.9629 24.4721C17.8285 24.6823 17.7075 24.875 17.5865 25.0677C17.3445 25.4356 17.1428 25.7684 16.9815 26.0311C16.8067 26.2939 16.6992 26.5216 16.605 26.6617C16.5244 26.8019 16.4706 26.8895 16.4706 26.8895C16.4706 26.8895 16.2958 27.2048 15.9732 27.7653C15.8118 28.0456 15.6236 28.3784 15.4085 28.7813C15.2068 29.1842 14.9783 29.6396 14.7228 30.1301C14.5884 30.3753 14.4674 30.6381 14.3329 30.9008C14.1985 31.1636 14.0775 31.4613 13.943 31.7416C13.6741 32.3197 13.3918 32.9328 13.1095 33.5634C12.8406 34.2115 12.5717 34.8771 12.2894 35.5778C12.2221 35.753 12.1549 35.9281 12.0743 36.0858C12.007 36.261 11.9533 36.4361 11.886 36.6113C11.7516 36.9616 11.6306 37.3295 11.4961 37.6798C10.4878 40.5351 9.6408 43.4779 9.17025 45.7376C9.10302 46.0178 9.04924 46.2806 8.98202 46.5433C8.92824 46.8061 8.86102 47.0338 8.82069 47.279C8.74002 47.7345 8.65936 48.1549 8.60558 48.4877C8.48458 49.1533 8.40391 49.5387 8.40391 49.5387C8.40391 49.5387 8.39047 49.6438 8.35013 49.819C8.3098 49.9941 8.28291 50.2569 8.22913 50.6072C8.1888 50.94 8.12158 51.3605 8.05435 51.8159C7.98713 52.2888 7.90646 52.8143 7.85269 53.3924C7.79891 53.9705 7.73169 54.6011 7.66446 55.2667C7.65102 55.4419 7.62413 55.5995 7.61069 55.7747C7.59724 55.9499 7.5838 56.125 7.57035 56.3002C7.55691 56.6505 7.53002 57.0009 7.50313 57.3862C7.38213 58.8401 7.38213 60.3991 7.3418 61.9581C7.38213 63.5171 7.38213 65.0761 7.50313 66.53C7.53002 66.8979 7.54346 67.2482 7.57035 67.5985C7.5838 67.7737 7.5838 67.9489 7.61069 68.1065C7.62413 68.2817 7.65102 68.4569 7.66446 68.6145C7.73169 69.2802 7.79891 69.9108 7.85269 70.4888C7.90646 71.0669 8.00058 71.5924 8.05435 72.0653C8.12158 72.5383 8.17535 72.9412 8.22913 73.274C8.28291 73.6068 8.3098 73.8696 8.35013 74.0622C8.37702 74.2374 8.40391 74.3425 8.40391 74.3425C8.40391 74.3425 8.47113 74.7279 8.60558 75.3935C8.65936 75.7263 8.74002 76.1292 8.82069 76.6022C8.87447 76.8299 8.94169 77.0751 8.99547 77.3379C9.04925 77.6006 9.11647 77.8634 9.18369 78.1437C9.65425 80.4033 10.4878 83.3462 11.5096 86.2014C11.6306 86.5517 11.765 86.9196 11.8995 87.2699C11.9667 87.4451 12.0205 87.6203 12.0877 87.7954C12.1549 87.9706 12.2356 88.1458 12.3028 88.3034C12.5851 88.9866 12.854 89.6522 13.1229 90.3179C13.4053 90.9485 13.6876 91.5615 13.9565 92.1396C14.0909 92.4199 14.2119 92.7177 14.3464 92.9804C14.4808 93.2432 14.6153 93.5059 14.7363 93.7511C14.9917 94.2416 15.2203 94.6971 15.4219 95.0999C15.6236 95.5028 15.8253 95.8356 15.9866 96.1159C16.3093 96.6765 16.484 96.9918 16.484 96.9918C16.484 96.9918 16.5378 97.0793 16.6185 97.2195C16.6992 97.3596 16.8202 97.5873 16.9949 97.8501C17.1563 98.1128 17.3714 98.4457 17.5999 98.8135C17.7209 99.0062 17.8419 99.1989 17.9764 99.4091C18.1108 99.6193 18.2318 99.847 18.3932 100.057C19.5897 101.861 21.2837 104.139 23.1391 106.241C24.9809 108.343 26.9976 110.182 28.5303 111.513C29.3235 112.144 29.9688 112.687 30.4394 113.037C30.91 113.37 31.1789 113.563 31.1789 113.563C31.1789 113.563 31.4477 113.755 31.9183 114.106C32.0393 114.193 32.1737 114.281 32.3082 114.386C32.4561 114.474 32.6174 114.579 32.7787 114.684C33.1149 114.894 33.4913 115.139 33.9081 115.419C35.5886 116.435 37.8608 117.714 40.2404 118.643C40.832 118.905 41.4235 119.098 42.0151 119.308C42.3109 119.413 42.6067 119.518 42.889 119.623C43.1713 119.729 43.4671 119.799 43.7494 119.886C44.3141 120.044 44.8653 120.202 45.3897 120.359C45.914 120.482 46.4114 120.587 46.8686 120.692C47.0971 120.745 47.3122 120.797 47.5273 120.832C47.7424 120.885 47.9441 120.902 48.1323 120.937C48.5088 120.99 48.8314 121.042 49.1138 121.095C49.6516 121.182 49.9608 121.235 49.9608 121.235L50.0146 120.639C50.0011 120.657 49.7053 120.604 49.1676 120.517Z" fill="#DBDBDB"/>
</svg>
