<svg width="65" height="48" viewBox="0 0 65 48" fill="none" xmlns="http://www.w3.org/2000/svg">
<path d="M25.5 35.4424C34.6127 35.4424 42 28.0551 42 18.9424C42 9.82968 34.6127 2.44238 25.5 2.44238C16.3873 2.44238 9 9.82968 9 18.9424C9 28.0551 16.3873 35.4424 25.5 35.4424Z" stroke="#303030" stroke-width="3" stroke-miterlimit="10"/>
<path d="M2 46.4424C4.87931 42.9978 8.47529 40.2279 12.5352 38.3276C16.5951 36.4272 21.0204 35.4424 25.5 35.4424C29.9796 35.4424 34.4049 36.4272 38.4648 38.3276C42.5247 40.2279 46.1207 42.9978 49 46.4424" stroke="#303030" stroke-width="3" stroke-linecap="round" stroke-linejoin="round"/>
<path d="M56.5 32.4424C58.9853 32.4424 61 30.6515 61 28.4424C61 26.2332 58.9853 24.4424 56.5 24.4424C54.0147 24.4424 52 26.2332 52 28.4424C52 30.6515 54.0147 32.4424 56.5 32.4424Z" stroke="#303030" stroke-width="3" stroke-linecap="round" stroke-linejoin="round"/>
<path d="M56 24.4424V20.4424" stroke="#303030" stroke-width="3" stroke-linecap="round" stroke-linejoin="round"/>
<path d="M53 26.4424L50 24.4424" stroke="#303030" stroke-width="3" stroke-linecap="round" stroke-linejoin="round"/>
<path d="M53 30.4424L50 32.4424" stroke="#303030" stroke-width="3" stroke-linecap="round" stroke-linejoin="round"/>
<path d="M56 32.4424V36.4424" stroke="#303030" stroke-width="3" stroke-linecap="round" stroke-linejoin="round"/>
<path d="M60 30.4424L63 32.4424" stroke="#303030" stroke-width="3" stroke-linecap="round" stroke-linejoin="round"/>
<path d="M60 26.4424L63 24.4424" stroke="#303030" stroke-width="3" stroke-linecap="round" stroke-linejoin="round"/>
</svg>
