<svg width="30" height="30" viewBox="0 0 30 30" fill="none" xmlns="http://www.w3.org/2000/svg">
<path d="M26 5.93232V22.0677C26.0001 22.2119 25.9673 22.3543 25.9041 22.4834C25.8408 22.6126 25.7489 22.7251 25.6356 22.812C25.5223 22.8989 25.3907 22.9579 25.2511 22.9843C25.1115 23.0107 24.9678 23.0038 24.8312 22.9641L4.66459 16.9919C4.47295 16.9362 4.3044 16.8186 4.18448 16.6568C4.06455 16.4951 3.99979 16.298 4 16.0955V11.9045C3.99979 11.702 4.06455 11.5049 4.18448 11.3432C4.3044 11.1814 4.47295 11.0638 4.66459 11.0081L24.8312 5.03591C24.9678 4.99624 25.1115 4.98933 25.2511 5.01572C25.3907 5.04212 25.5223 5.1011 25.6356 5.18802C25.7489 5.27494 25.8408 5.38741 25.9041 5.51657C25.9673 5.64574 26.0001 5.78806 26 5.93232Z" stroke="#FF80AD" stroke-width="2" stroke-linecap="round" stroke-linejoin="round"/>
<path d="M9 18.8766V23.0748C9 23.3202 9.0878 23.5555 9.24408 23.729C9.40036 23.9025 9.61232 24 9.83333 24H13.1667C13.3877 24 13.5996 23.9025 13.7559 23.729C13.9122 23.5555 14 23.3202 14 23.0748V9" stroke="#FF80AD" stroke-width="2" stroke-linecap="round" stroke-linejoin="round"/>
</svg>
