<svg width="26" height="18" viewBox="0 0 26 18" fill="none" xmlns="http://www.w3.org/2000/svg">
<path d="M18 2.00002H22.6594C22.8337 1.99872 23.0043 2.05772 23.1488 2.16927C23.2932 2.28081 23.4048 2.43969 23.4688 2.62502L25 7" stroke="#A76FD2" stroke-width="1.5" stroke-linecap="round" stroke-linejoin="round"/>
<path d="M1 9H18" stroke="#A76FD2" stroke-width="1.5" stroke-linecap="round" stroke-linejoin="round"/>
<path d="M19.5 17C20.8807 17 22 15.8807 22 14.5C22 13.1193 20.8807 12 19.5 12C18.1193 12 17 13.1193 17 14.5C17 15.8807 18.1193 17 19.5 17Z" stroke="#A76FD2" stroke-width="1.5" stroke-linecap="round" stroke-linejoin="round"/>
<path d="M6.5 17C7.88071 17 9 15.8807 9 14.5C9 13.1193 7.88071 12 6.5 12C5.11929 12 4 13.1193 4 14.5C4 15.8807 5.11929 17 6.5 17Z" stroke="#A76FD2" stroke-width="1.5" stroke-linecap="round" stroke-linejoin="round"/>
<path d="M17 14H9" stroke="#A76FD2" stroke-width="1.5" stroke-linecap="round" stroke-linejoin="round"/>
<path d="M3.975 14H1.85C1.62457 14 1.40837 13.9144 1.24896 13.762C1.08955 13.6097 1 13.403 1 13.1875V1.8125C1 1.59701 1.08955 1.39035 1.24896 1.23798C1.40837 1.0856 1.62457 1 1.85 1H18V11.8875" stroke="#A76FD2" stroke-width="1.5" stroke-linecap="round" stroke-linejoin="round"/>
<path d="M18 7H25V13.2222C25 13.4285 24.9078 13.6263 24.7437 13.7722C24.5796 13.9181 24.3571 14 24.125 14H21.9375" stroke="#A76FD2" stroke-width="1.5" stroke-linecap="round" stroke-linejoin="round"/>
</svg>
