<svg width="28" height="28" viewBox="0 0 28 28" fill="none" xmlns="http://www.w3.org/2000/svg">
<path d="M5.00002 24C4.99854 23.657 5.06736 23.3171 5.20252 23C5.33768 22.6828 5.5365 22.3947 5.78752 22.1522C6.03853 21.9096 6.33677 21.7175 6.66502 21.587C6.99327 21.4564 7.34503 21.3899 7.70002 21.3913H23V4.00002H7.70002C7.34503 3.99858 6.99327 4.06508 6.66502 4.19567C6.33677 4.32626 6.03853 4.51836 5.78752 4.76088C5.5365 5.00341 5.33768 5.29156 5.20252 5.60871C5.06736 5.92586 4.99854 6.26573 5.00002 6.60872V24Z" stroke="#23C0F7" stroke-width="2" stroke-linecap="round" stroke-linejoin="round"/>
<path d="M5 24V25H21" stroke="#23C0F7" stroke-width="2" stroke-linecap="round" stroke-linejoin="round"/>
</svg>
