<svg width="21" height="26" viewBox="0 0 21 26" fill="none" xmlns="http://www.w3.org/2000/svg">
<path d="M5.88232 25H16.8823" stroke="#FFB545" stroke-width="2" stroke-linecap="round" stroke-linejoin="round"/>
<path d="M10.8823 21V15" stroke="#FFB545" stroke-width="2" stroke-linecap="round" stroke-linejoin="round"/>
<path d="M6.88232 11L10.8823 15L14.8823 11" stroke="#FFB545" stroke-width="2" stroke-linecap="round" stroke-linejoin="round"/>
<path d="M5.33624 17.2505C4.26476 16.4091 3.39695 15.3324 2.79855 14.102C2.20015 12.8717 1.88686 11.5199 1.88242 10.1491C1.85992 5.21792 5.78625 1.11618 10.6688 1.00255C12.5585 0.957313 14.4143 1.51408 15.9731 2.5939C17.5318 3.67372 18.7144 5.22177 19.353 7.01851C19.9917 8.81524 20.054 10.7694 19.5312 12.604C19.0084 14.4385 17.9269 16.0602 16.4402 17.2391C16.1118 17.4955 15.8458 17.8243 15.6625 18.2005C15.4792 18.5766 15.3835 18.9901 15.3827 19.4093V20.091C15.3827 20.3321 15.2879 20.5633 15.1191 20.7338C14.9503 20.9042 14.7214 21 14.4827 21H7.28253C7.04383 21 6.81491 20.9042 6.64612 20.7338C6.47733 20.5633 6.38251 20.3321 6.38251 20.091V19.4093C6.37969 18.9932 6.28419 18.5831 6.10307 18.2094C5.92195 17.8357 5.65986 17.508 5.33624 17.2505V17.2505Z" stroke="#FFB545" stroke-width="2" stroke-linecap="round" stroke-linejoin="round"/>
</svg>
