<svg width="26" height="26" viewBox="0 0 26 26" fill="none" xmlns="http://www.w3.org/2000/svg">
<path d="M2.85714 11H8V21H2.85714C2.62981 21 2.4118 20.919 2.25105 20.7747C2.09031 20.6304 2 20.4348 2 20.2308V11.7692C2 11.5652 2.09031 11.3696 2.25105 11.2253C2.4118 11.081 2.62981 11 2.85714 11V11Z" stroke="#BC7964" stroke-width="2" stroke-linecap="round" stroke-linejoin="round"/>
<path d="M8 10.2609L12.0043 2C12.8539 2 13.6687 2.34814 14.2695 2.96782C14.8702 3.58751 15.2077 4.42798 15.2077 5.30435V7.78261H21.4044C21.6315 7.78203 21.8561 7.83159 22.0631 7.92796C22.2701 8.02433 22.4547 8.16529 22.6045 8.34135C22.7543 8.51741 22.8659 8.7245 22.9317 8.94872C22.9975 9.17294 23.0161 9.40909 22.9861 9.6413L21.7848 19.5543C21.7362 19.9523 21.5489 20.3184 21.2579 20.5844C20.9668 20.8504 20.5919 20.9981 20.2031 21H8" stroke="#BC7964" stroke-width="2" stroke-linecap="round" stroke-linejoin="round"/>
</svg>
