<svg width="31" height="31" viewBox="0 0 31 31" fill="none" xmlns="http://www.w3.org/2000/svg">
<path d="M5.98809 25.3942C4.74963 24.1558 5.57079 21.5577 4.93809 20.0365C4.3054 18.5154 1.88232 17.1827 1.88232 15.5C1.88232 13.8173 4.27848 12.5385 4.93809 10.9635C5.59771 9.38846 4.74963 6.84423 5.98809 5.60577C7.22656 4.36731 9.82463 5.18846 11.3458 4.55577C12.8669 3.92308 14.1996 1.5 15.8823 1.5C17.565 1.5 18.8439 3.89615 20.4189 4.55577C21.9939 5.21538 24.5381 4.36731 25.7766 5.60577C27.015 6.84423 26.1939 9.44231 26.8266 10.9635C27.4592 12.4846 29.8823 13.8173 29.8823 15.5C29.8823 17.1827 27.4862 18.4615 26.8266 20.0365C26.1669 21.6115 27.015 24.1558 25.7766 25.3942C24.5381 26.6327 21.94 25.8115 20.4189 26.4442C18.8977 27.0769 17.565 29.5 15.8823 29.5C14.1996 29.5 12.9208 27.1038 11.3458 26.4442C9.77079 25.7846 7.22656 26.6327 5.98809 25.3942Z" stroke="#928EF2" stroke-width="2" stroke-linecap="round" stroke-linejoin="round"/>
<path d="M19.8823 11.5L11.8823 19.5" stroke="#928EF2" stroke-width="2" stroke-linecap="round" stroke-linejoin="round"/>
<path d="M12.8823 13.5C13.4346 13.5 13.8823 13.0523 13.8823 12.5C13.8823 11.9477 13.4346 11.5 12.8823 11.5C12.33 11.5 11.8823 11.9477 11.8823 12.5C11.8823 13.0523 12.33 13.5 12.8823 13.5Z" stroke="#928EF2" stroke-width="2" stroke-linecap="round" stroke-linejoin="round"/>
<path d="M18.8823 19.5C19.4346 19.5 19.8823 19.0523 19.8823 18.5C19.8823 17.9477 19.4346 17.5 18.8823 17.5C18.33 17.5 17.8823 17.9477 17.8823 18.5C17.8823 19.0523 18.33 19.5 18.8823 19.5Z" stroke="#928EF2" stroke-width="2" stroke-linecap="round" stroke-linejoin="round"/>
</svg>
