<svg width="26" height="22" viewBox="0 0 26 22" fill="none" xmlns="http://www.w3.org/2000/svg">
<path d="M24 1H2C1.44772 1 1 1.44772 1 2V20C1 20.5523 1.44772 21 2 21H24C24.5523 21 25 20.5523 25 20V2C25 1.44772 24.5523 1 24 1Z" stroke="#FF4F4F" stroke-width="2" stroke-linecap="round" stroke-linejoin="round"/>
<path d="M5.5 6.75C6.19036 6.75 6.75 6.19036 6.75 5.5C6.75 4.80964 6.19036 4.25 5.5 4.25C4.80964 4.25 4.25 4.80964 4.25 5.5C4.25 6.19036 4.80964 6.75 5.5 6.75Z" fill="#FF4F4F"/>
<path d="M9 6.75C9.69036 6.75 10.25 6.19036 10.25 5.5C10.25 4.80964 9.69036 4.25 9 4.25C8.30964 4.25 7.75 4.80964 7.75 5.5C7.75 6.19036 8.30964 6.75 9 6.75Z" fill="#FF4F4F"/>
</svg>
