<svg width="62" height="62" viewBox="0 0 62 62" fill="none" xmlns="http://www.w3.org/2000/svg">
<path d="M10.5048 51.9376C7.93942 49.3722 9.64038 43.9905 8.32981 40.8395C7.01923 37.6885 2 34.928 2 31.4424C2 27.9568 6.96346 25.3078 8.32981 22.0453C9.69615 18.7828 7.93942 13.5126 10.5048 10.9472C13.0702 8.38181 18.4519 10.0828 21.6029 8.77219C24.7538 7.46161 27.5144 2.44238 31 2.44238C34.4856 2.44238 37.1346 7.40584 40.3971 8.77219C43.6596 10.1385 48.9298 8.38181 51.4952 10.9472C54.0606 13.5126 52.3596 18.8943 53.6702 22.0453C54.9808 25.1962 60 27.9568 60 31.4424C60 34.928 55.0365 37.577 53.6702 40.8395C52.3038 44.102 54.0606 49.3722 51.4952 51.9376C48.9298 54.503 43.5481 52.802 40.3971 54.1126C37.2462 55.4232 34.4856 60.4424 31 60.4424C27.5144 60.4424 24.8654 55.4789 21.6029 54.1126C18.3404 52.7462 13.0702 54.503 10.5048 51.9376Z" stroke="#303030" stroke-width="3" stroke-linecap="round" stroke-linejoin="round"/>
<path d="M43 24.4424L26.9909 40.4424L19 32.4424" stroke="#303030" stroke-width="3" stroke-linecap="round" stroke-linejoin="round"/>
</svg>
