<svg width="28" height="28" viewBox="0 0 28 28" fill="none" xmlns="http://www.w3.org/2000/svg">
<path d="M14.5 21C18.0899 21 21 18.0899 21 14.5C21 10.9101 18.0899 8 14.5 8C10.9101 8 8 10.9101 8 14.5C8 18.0899 10.9101 21 14.5 21Z" stroke="#2FCF3F" stroke-width="2" stroke-linecap="round" stroke-linejoin="round"/>
<path d="M21.2122 5.85558C21.5402 6.1577 21.8509 6.46846 22.1444 6.78785L25.6793 7.29283C26.2552 8.29309 26.6992 9.36375 27 10.4781L24.8506 13.3396C24.8506 13.3396 24.8894 14.2201 24.8506 14.6604L27 17.5219C26.7006 18.6367 26.2566 19.7076 25.6793 20.7072L22.1444 21.2122C22.1444 21.2122 21.5359 21.8466 21.2122 22.1444L20.7072 25.6793C19.7069 26.2552 18.6362 26.6992 17.5219 27L14.6604 24.8506C14.221 24.8895 13.779 24.8895 13.3396 24.8506L10.4781 27C9.36328 26.7006 8.29243 26.2566 7.29283 25.6793L6.78785 22.1444C6.46846 21.8423 6.1577 21.5315 5.85558 21.2122L2.32072 20.7072C1.74476 19.7069 1.30082 18.6362 1 17.5219L3.1494 14.6604C3.1494 14.6604 3.11056 13.7799 3.1494 13.3396L1 10.4781C1.29943 9.36328 1.74344 8.29243 2.32072 7.29283L5.85558 6.78785C6.1577 6.46846 6.46846 6.1577 6.78785 5.85558L7.29283 2.32072C8.29309 1.74476 9.36375 1.30082 10.4781 1L13.3396 3.1494C13.779 3.11055 14.221 3.11055 14.6604 3.1494L17.5219 1C18.6367 1.29943 19.7076 1.74344 20.7072 2.32072L21.2122 5.85558Z" stroke="#2FCF3F" stroke-width="2" stroke-linecap="round" stroke-linejoin="round"/>
</svg>
