<svg width="34" height="33" viewBox="0 0 34 33" fill="none" xmlns="http://www.w3.org/2000/svg">
<path d="M17.8338 23.6802L15.1338 31.0068C15.0539 31.2221 14.91 31.4077 14.7215 31.5389C14.5329 31.67 14.3088 31.7403 14.0791 31.7403C13.8495 31.7403 13.6253 31.67 13.4368 31.5389C13.2482 31.4077 13.1044 31.2221 13.0244 31.0068L10.3244 23.6802C10.2675 23.5256 10.1776 23.3851 10.0611 23.2686C9.94452 23.152 9.80408 23.0622 9.64944 23.0052L2.32287 20.3052C2.10757 20.2253 1.92189 20.0814 1.79076 19.8929C1.65964 19.7043 1.58936 19.4802 1.58936 19.2505C1.58936 19.0209 1.65964 18.7967 1.79076 18.6082C1.92189 18.4196 2.10757 18.2757 2.32287 18.1958L9.64944 15.4958C9.80408 15.4388 9.94452 15.349 10.0611 15.2324C10.1776 15.1159 10.2675 14.9755 10.3244 14.8208L13.0244 7.49426C13.1044 7.27896 13.2482 7.09328 13.4368 6.96215C13.6253 6.83103 13.8495 6.76074 14.0791 6.76074C14.3088 6.76074 14.5329 6.83103 14.7215 6.96215C14.91 7.09328 15.0539 7.27896 15.1338 7.49426L17.8338 14.8208C17.8908 14.9755 17.9807 15.1159 18.0972 15.2324C18.2137 15.349 18.3542 15.4388 18.5088 15.4958L25.8354 18.1958C26.0507 18.2757 26.2364 18.4196 26.3675 18.6082C26.4986 18.7967 26.5689 19.0209 26.5689 19.2505C26.5689 19.4802 26.4986 19.7043 26.3675 19.8929C26.2364 20.0814 26.0507 20.2253 25.8354 20.3052L18.5088 23.0052C18.3542 23.0622 18.2137 23.152 18.0972 23.2686C17.9807 23.3851 17.8908 23.5256 17.8338 23.6802V23.6802Z" stroke="#303030" stroke-width="2" stroke-linecap="round" stroke-linejoin="round"/>
<path d="M23.0776 1.25V8" stroke="#303030" stroke-width="2" stroke-linecap="round" stroke-linejoin="round"/>
<path d="M26.4526 4.625H19.7026" stroke="#303030" stroke-width="2" stroke-linecap="round" stroke-linejoin="round"/>
<path d="M29.8276 9.125V13.625" stroke="#303030" stroke-width="2" stroke-linecap="round" stroke-linejoin="round"/>
<path d="M32.0776 11.375H27.5776" stroke="#303030" stroke-width="2" stroke-linecap="round" stroke-linejoin="round"/>
</svg>
